<?xml version="1.0" encoding="UTF-8"?>
<svg id="Layer_1" xmlns="http://www.w3.org/2000/svg" version="1.1" viewBox="0 0 1080 1080">
  <!-- Generator: Adobe Illustrator 29.5.1, SVG Export Plug-In . SVG Version: 2.1.0 Build 141)  -->
  <defs>
    <style>
      .st0 {
        fill: red;
      }

      .st1 {
        fill: #f8f7f5;
      }
    </style>
  </defs>
  <rect x="-47.35" y="-25.9" width="1139.4" height="1131.81"/>
  <g>
    <polygon class="st1" points="315.63 321.65 222.45 321.65 222.45 321.84 221.53 321.84 221.53 412.31 241.03 412.51 241.03 341.35 315.63 341.15 315.63 321.65"/>
    <polygon class="st1" points="754.8 721.98 847.98 721.98 847.98 721.79 848.9 721.79 848.9 631.32 829.4 631.12 829.4 702.28 754.8 702.47 754.8 721.98"/>
    <polygon class="st1" points="315.63 721.98 222.45 721.98 222.45 721.79 221.53 721.79 221.53 631.32 241.03 631.12 241.03 702.28 315.63 702.47 315.63 721.98"/>
    <polygon class="st1" points="754.8 321.65 847.98 321.65 847.98 321.84 848.9 321.84 848.9 412.31 829.4 412.51 829.4 341.35 754.8 341.15 754.8 321.65"/>
    <circle class="st0" cx="754.8" cy="475.74" r="29.17"/>
    <circle class="st0" cx="754.8" cy="568.02" r="29.17"/>
    <g>
      <path class="st1" d="M554.48,409.33c2.85,0-4.94,5.16-4.94,8.01l-34.04,40.02c0,2.86-1.44,4.29-4.29,4.29h-118.42c-2.57,0-4.86.72-6.86,2.14-2,1.43-3.79,3.07-5.35,4.93-1.57,1.86-2.79,3.86-3.65,6-.86,2.14-1.29,4.08-1.29,5.79v147.96c0,2.86-1.44,4.29-4.29,4.29h-48.03c-2.86,0-4.29-1.43-4.29-4.29v-162.96c0-7.43,1.5-14.58,4.5-21.44,3.01-6.86,7.08-12.86,12.23-18.01,5.15-5.15,11.15-9.22,18.01-12.23,6.86-3,14.15-4.5,21.87-4.5h178.83Z"/>
      <path class="st1" d="M497.45,550.42c0,4.29,1.14,8.22,3.43,11.8,2.29,3.58,5.36,6.72,9.22,9.43,3.85,2.72,8.5,4.86,13.94,6.43,5.43,1.57,11.14,2.36,17.15,2.36h102.07c2.85,0,4.29,1.44,4.29,4.29v43.74c0,2.86-1.44,4.29-4.29,4.29h-72.48c-24.01,0-44.1-2-60.25-6-16.15-4-29.17-10.36-39.03-19.08-9.85-8.72-16.87-19.8-21.01-33.24-4.15-13.43-6.22-29.59-6.22-48.46,0-22.87,3.5-41.81,10.51-56.82,7-15.01,16.14-26.94,27.44-35.81,11.29-8.86,24.02-15.08,38.17-18.65,14.15-3.58,28.37-5.36,42.67-5.36,17.73,0,33.02,2.08,45.88,6.22,12.86,4.14,23.44,10.01,31.74,17.58,8.29,7.58,14.37,16.8,18.23,27.66,3.85,10.87,5.79,23.02,5.79,36.45v44.6c0,2.86-1.44,4.29-4.29,4.29h-158.68c-2.86,0-4.29,1.44-4.29,4.29ZM611.94,495.96c2.86,0,4.29-1.43,4.29-4.29,0-10.86-5-19.51-15-25.94-10.01-6.44-24.02-9.65-42.03-9.65-5.72,0-12.08.86-19.08,2.57-7.01,1.71-13.73,4.07-20.15,7.08-6.44,3-11.8,6.72-16.09,11.15-4.29,4.44-6.43,9.37-6.43,14.8,0,2.86,1.43,4.29,4.29,4.29h110.21Z"/>
    </g>
  </g>
</svg>